<svg width="24" height="24" viewBox="0 0 24 24" fill="none" xmlns="http://www.w3.org/2000/svg"><rect width="24" height="24" fill="none" rx="0" ry="0"></rect><path fill-rule="evenodd" clip-rule="evenodd" d="M9.34502 10.3837C9.68989 11.8965 10.7665 13.2449 11.7234 14.1005C11.6197 14.2084 11.556 14.3549 11.556 14.5165C11.556 14.5195 11.556 14.5226 11.556 14.5257V16.7231C11.556 16.7262 11.556 16.7292 11.556 16.7323C11.556 17.0638 11.8245 17.3324 12.1556 17.3324H15.1458C15.4769 17.3324 15.7454 17.0638 15.7454 16.7323H15.7455V14.5165H15.7454C15.7454 14.3553 15.6819 14.2089 15.5786 14.1011C16.5353 13.2455 17.6124 11.8969 17.9573 10.3837C18.219 9.23474 17.9964 8.1532 17.3148 7.25623C16.4222 6.08044 15.0872 5.40662 13.6517 5.40613H13.6507C12.2161 5.40613 10.8802 6.08044 9.98663 7.25623C9.30499 8.1532 9.08331 9.23474 9.34502 10.3837ZM12.7552 16.1322H14.5463V15.1166H12.7552V16.1322ZM13.6507 6.60632C12.594 6.60632 11.6067 7.10779 10.9417 7.9823C10.469 8.60437 10.3294 9.30261 10.5149 10.1171C10.8424 11.5536 12.1383 12.9676 13.011 13.6049V11.3193C12.6429 11.1103 12.3946 10.7147 12.3946 10.2612C12.3946 9.58966 12.939 9.04529 13.6105 9.04529C14.282 9.04529 14.8264 9.58966 14.8264 10.2612C14.8264 10.7146 14.5782 11.1101 14.2103 11.3191V13.6629C15.0821 13.0568 16.4496 11.5989 16.7874 10.1171C16.972 9.3031 16.8323 8.60437 16.3597 7.9823C15.6956 7.10779 14.7083 6.60632 13.6517 6.60632H13.6507Z" fill="#4b6cc1"></path><path fill-rule="evenodd" clip-rule="evenodd" d="M10.9603 21.7386C10.6752 21.7386 10.4222 21.5341 10.3705 21.2435L10.0648 19.5219C6.22203 19.788 6.13707 19.3578 6.04625 18.9052C5.81383 17.7362 5.43785 15.6439 5.27379 14.6107L3.32262 13.6537C3.0648 13.6044 2.84703 13.4442 2.73277 13.2118C2.60387 12.9496 2.63512 12.6415 2.8148 12.4076L6.17906 8.09753C6.2357 4.04285 9.28355 2.10437 12.138 2.01941C14.6322 1.94324 22.2328 1.71814 22.5746 9.74646C22.6312 11.0902 22.2513 12.3514 22.2357 12.4042C22.138 12.722 21.7972 12.8973 21.4877 12.8031C21.1703 12.7069 20.9916 12.3719 21.0873 12.0551C21.0912 12.0438 21.4232 10.9305 21.3753 9.79724C21.1146 3.66345 15.9984 3.099 12.1732 3.21863C10.3714 3.27234 7.33336 4.40222 7.37828 8.29724L7.38121 8.5072L4.10777 12.702L6.36656 13.8104L6.41246 14.1234C6.52281 14.8778 6.90562 17.037 7.16246 18.3597C7.75035 18.4286 9.25621 18.3842 10.514 18.2855L11.057 18.243L11.5521 21.0336C11.6097 21.3597 11.3929 21.6713 11.0658 21.7294C11.0306 21.7357 10.9955 21.7386 10.9603 21.7386Z" fill="#20262e"></path><path fill-rule="evenodd" clip-rule="evenodd" d="M13.6105 11.4771C14.2821 11.4771 14.8264 10.9327 14.8264 10.2612C14.8264 9.58966 14.2821 9.04529 13.6105 9.04529C12.939 9.04529 12.3947 9.58966 12.3947 10.2612C12.3947 10.9327 12.939 11.4771 13.6105 11.4771" fill="white" fill-opacity="0.31"></path></svg>